# This file uses centimeters as units for non-parametric coordinates.

mtllib win_frame.mtl
g default
v -0.123745 0.557206 0.515774
v 0.123745 0.557206 0.515774
v -0.123745 0.911681 0.515774
v 0.123745 0.911681 0.515774
v -0.123745 0.911681 0.478525
v 0.123745 0.911681 0.478525
v -0.123745 0.557206 0.478525
v 0.123745 0.557206 0.478525
v -0.107997 0.579762 0.515774
v 0.107997 0.579762 0.515774
v 0.107997 0.889124 0.515774
v -0.107997 0.889124 0.515774
v -0.107997 0.579762 0.502678
v 0.107997 0.579762 0.502678
v 0.107997 0.889124 0.502678
v -0.107997 0.889124 0.502678
vt 0.375000 0.250000
vt 0.625000 0.250000
vt 0.625000 0.500000
vt 0.375000 0.500000
vt 0.375000 0.750000
vt 0.625000 0.750000
vt 0.625000 1.000000
vt 0.375000 1.000000
vt 0.625000 0.000000
vt 0.875000 0.000000
vt 0.875000 0.250000
vt 0.125000 0.000000
vt 0.375000 0.000000
vt 0.125000 0.250000
vt 0.625000 0.000000
vt 0.375000 0.000000
vt 0.625000 0.250000
vt 0.375000 0.250000
vt 0.625000 0.000000
vt 0.375000 0.000000
vt 0.625000 0.250000
vt 0.375000 0.250000
vn 0.000000 1.000000 0.000000
vn 0.000000 1.000000 0.000000
vn 0.000000 1.000000 0.000000
vn 0.000000 1.000000 0.000000
vn 0.000000 -1.000000 0.000000
vn 0.000000 -1.000000 0.000000
vn 0.000000 -1.000000 0.000000
vn 0.000000 -1.000000 0.000000
vn 1.000000 0.000000 0.000000
vn 1.000000 0.000000 0.000000
vn 1.000000 0.000000 0.000000
vn 1.000000 0.000000 0.000000
vn -1.000000 0.000000 0.000000
vn -1.000000 0.000000 0.000000
vn -1.000000 0.000000 0.000000
vn -1.000000 0.000000 0.000000
vn 0.000000 0.000000 1.000000
vn 0.000000 0.000000 1.000000
vn 0.000000 0.000000 1.000000
vn 0.000000 0.000000 1.000000
vn 0.000000 0.000000 1.000000
vn 0.000000 0.000000 1.000000
vn 0.000000 0.000000 1.000000
vn 0.000000 0.000000 1.000000
vn 0.000000 0.000000 1.000000
vn 0.000000 0.000000 1.000000
vn 0.000000 0.000000 1.000000
vn 0.000000 0.000000 1.000000
vn 0.000000 0.000000 1.000000
vn 0.000000 0.000000 1.000000
vn 0.000000 0.000000 1.000000
vn 0.000000 0.000000 1.000000
vn 0.000000 1.000000 0.000000
vn 0.000000 1.000000 0.000000
vn 0.000000 1.000000 0.000000
vn 0.000000 1.000000 0.000000
vn -1.000000 0.000000 0.000000
vn -1.000000 0.000000 0.000000
vn -1.000000 0.000000 0.000000
vn -1.000000 0.000000 0.000000
vn 0.000000 -1.000000 0.000000
vn 0.000000 -1.000000 0.000000
vn 0.000000 -1.000000 0.000000
vn 0.000000 -1.000000 0.000000
vn 1.000000 0.000000 0.000000
vn 1.000000 0.000000 0.000000
vn 1.000000 0.000000 0.000000
vn 1.000000 0.000000 0.000000
s 1
g polySurface6 pCube17
usemtl initialShadingGroup
f 3/1/1 4/2/2 5/4/3
f 5/4/3 4/2/2 6/3/4
s 2
f 7/5/5 8/6/6 1/8/7
f 1/8/7 8/6/6 2/7/8
s 3
f 2/9/9 8/10/10 4/2/11
f 4/2/11 8/10/10 6/11/12
s 4
f 7/12/13 1/13/14 5/14/15
f 5/14/15 1/13/14 3/1/16
s 5
f 1/13/17 2/9/18 9/16/19
f 9/16/19 2/9/18 10/15/20
s 6
f 2/9/21 4/2/22 10/15/23
f 10/15/23 4/2/22 11/17/24
s 7
f 4/2/25 3/1/26 11/17/27
f 11/17/27 3/1/26 12/18/28
s 8
f 3/1/29 1/13/30 12/18/31
f 12/18/31 1/13/30 9/16/32
s 9
f 9/16/33 10/15/34 13/20/35
f 13/20/35 10/15/34 14/19/36
s 10
f 10/15/37 11/17/38 14/19/39
f 14/19/39 11/17/38 15/21/40
s 11
f 11/17/41 12/18/42 15/21/43
f 15/21/43 12/18/42 16/22/44
s 12
f 12/18/45 9/16/46 16/22/47
f 16/22/47 9/16/46 13/20/48
